<mxfile host="app.diagrams.net" modified="2024-03-05T16:25:47.452Z" agent="Mozilla/5.0 (X11; Linux x86_64; rv:120.0) Gecko/20100101 Firefox/120.0" etag="-Uvmnw1phSqAOa3JDYIA" version="24.0.1" type="device">
  <diagram name="PÃ¡gina-1" id="jz5gNubXt113_IH8z10D">
    <mxGraphModel dx="3033" dy="2349" grid="1" gridSize="10" guides="1" tooltips="1" connect="1" arrows="1" fold="1" page="1" pageScale="1" pageWidth="827" pageHeight="1169" math="0" shadow="0">
      <root>
        <mxCell id="0" />
        <mxCell id="1" parent="0" />
        <mxCell id="4EMU74MTj3nFoCHXgDLq-9" style="edgeStyle=orthogonalEdgeStyle;rounded=0;orthogonalLoop=1;jettySize=auto;html=1;exitX=0.5;exitY=0.5;exitDx=0;exitDy=0;exitPerimeter=0;endArrow=none;endFill=0;" edge="1" parent="1" source="4EMU74MTj3nFoCHXgDLq-1" target="4EMU74MTj3nFoCHXgDLq-8">
          <mxGeometry relative="1" as="geometry" />
        </mxCell>
        <mxCell id="4EMU74MTj3nFoCHXgDLq-1" value="User" style="shape=umlActor;verticalLabelPosition=bottom;verticalAlign=top;html=1;outlineConnect=0;" vertex="1" parent="1">
          <mxGeometry x="90" y="140" width="30" height="60" as="geometry" />
        </mxCell>
        <mxCell id="4EMU74MTj3nFoCHXgDLq-10" style="edgeStyle=orthogonalEdgeStyle;rounded=0;orthogonalLoop=1;jettySize=auto;html=1;exitX=0.5;exitY=0.5;exitDx=0;exitDy=0;exitPerimeter=0;entryX=0;entryY=0.5;entryDx=0;entryDy=0;endArrow=none;endFill=0;" edge="1" parent="1" source="4EMU74MTj3nFoCHXgDLq-4" target="4EMU74MTj3nFoCHXgDLq-11">
          <mxGeometry relative="1" as="geometry">
            <mxPoint x="240" y="330" as="targetPoint" />
          </mxGeometry>
        </mxCell>
        <mxCell id="4EMU74MTj3nFoCHXgDLq-4" value="Admin" style="shape=umlActor;verticalLabelPosition=bottom;verticalAlign=top;html=1;outlineConnect=0;" vertex="1" parent="1">
          <mxGeometry x="90" y="300" width="30" height="60" as="geometry" />
        </mxCell>
        <mxCell id="4EMU74MTj3nFoCHXgDLq-8" value="&lt;b&gt;UC 1:&lt;/b&gt;&lt;br&gt;Authenticate" style="ellipse;whiteSpace=wrap;html=1;fillColor=#f8cecc;strokeColor=#b85450;" vertex="1" parent="1">
          <mxGeometry x="230" y="140" width="100" height="60" as="geometry" />
        </mxCell>
        <mxCell id="4EMU74MTj3nFoCHXgDLq-11" value="&lt;b&gt;UC 8:&lt;/b&gt;&lt;br&gt;Authenticate" style="ellipse;whiteSpace=wrap;html=1;fillColor=#f8cecc;strokeColor=#b85450;" vertex="1" parent="1">
          <mxGeometry x="250" y="300" width="100" height="60" as="geometry" />
        </mxCell>
        <mxCell id="4EMU74MTj3nFoCHXgDLq-13" value="" style="endArrow=block;html=1;rounded=0;entryX=1;entryY=0;entryDx=0;entryDy=0;endFill=0;exitX=0;exitY=0.5;exitDx=0;exitDy=0;" edge="1" parent="1" source="4EMU74MTj3nFoCHXgDLq-15" target="4EMU74MTj3nFoCHXgDLq-8">
          <mxGeometry width="50" height="50" relative="1" as="geometry">
            <mxPoint x="400" y="120" as="sourcePoint" />
            <mxPoint x="610" y="60" as="targetPoint" />
          </mxGeometry>
        </mxCell>
        <mxCell id="4EMU74MTj3nFoCHXgDLq-14" value="&amp;lt;&amp;lt;extends&amp;gt;&amp;gt;" style="text;html=1;align=center;verticalAlign=middle;resizable=0;points=[];autosize=1;strokeColor=none;fillColor=none;rotation=-20;" vertex="1" parent="1">
          <mxGeometry x="324" y="95" width="90" height="30" as="geometry" />
        </mxCell>
        <mxCell id="4EMU74MTj3nFoCHXgDLq-15" value="&lt;b&gt;UC 2:&lt;/b&gt;&lt;br&gt;Book" style="ellipse;whiteSpace=wrap;html=1;fillColor=#fff2cc;strokeColor=#d6b656;" vertex="1" parent="1">
          <mxGeometry x="414" y="80" width="116" height="60" as="geometry" />
        </mxCell>
        <mxCell id="4EMU74MTj3nFoCHXgDLq-20" value="&lt;b&gt;UC 6:&lt;/b&gt;&lt;br&gt;Cancel Book" style="ellipse;whiteSpace=wrap;html=1;fillColor=#dae8fc;strokeColor=#6c8ebf;" vertex="1" parent="1">
          <mxGeometry x="1210" y="185" width="116" height="60" as="geometry" />
        </mxCell>
        <mxCell id="4EMU74MTj3nFoCHXgDLq-21" value="" style="endArrow=block;html=1;rounded=0;entryX=1;entryY=0.5;entryDx=0;entryDy=0;endFill=0;exitX=0;exitY=0;exitDx=0;exitDy=0;" edge="1" parent="1" source="4EMU74MTj3nFoCHXgDLq-20" target="4EMU74MTj3nFoCHXgDLq-23">
          <mxGeometry width="50" height="50" relative="1" as="geometry">
            <mxPoint x="949" y="161" as="sourcePoint" />
            <mxPoint x="769.0121933088199" y="131.2132034355966" as="targetPoint" />
          </mxGeometry>
        </mxCell>
        <mxCell id="4EMU74MTj3nFoCHXgDLq-23" value="&lt;b&gt;UC 5:&lt;/b&gt;&lt;br&gt;Accepted" style="ellipse;whiteSpace=wrap;html=1;fillColor=#d5e8d4;strokeColor=#82b366;" vertex="1" parent="1">
          <mxGeometry x="990" y="50" width="110" height="55" as="geometry" />
        </mxCell>
        <mxCell id="4EMU74MTj3nFoCHXgDLq-24" value="" style="endArrow=block;html=1;rounded=0;endFill=0;exitX=0;exitY=0;exitDx=0;exitDy=0;entryX=1;entryY=1;entryDx=0;entryDy=0;" edge="1" parent="1" source="4EMU74MTj3nFoCHXgDLq-23" target="4EMU74MTj3nFoCHXgDLq-58">
          <mxGeometry width="50" height="50" relative="1" as="geometry">
            <mxPoint x="640" y="80" as="sourcePoint" />
            <mxPoint x="590" y="90" as="targetPoint" />
          </mxGeometry>
        </mxCell>
        <mxCell id="4EMU74MTj3nFoCHXgDLq-25" value="" style="endArrow=block;html=1;rounded=0;entryX=0.5;entryY=1;entryDx=0;entryDy=0;endFill=0;exitX=0;exitY=0;exitDx=0;exitDy=0;" edge="1" parent="1" source="4EMU74MTj3nFoCHXgDLq-26" target="4EMU74MTj3nFoCHXgDLq-58">
          <mxGeometry width="50" height="50" relative="1" as="geometry">
            <mxPoint x="640" y="160" as="sourcePoint" />
            <mxPoint x="611" y="239" as="targetPoint" />
          </mxGeometry>
        </mxCell>
        <mxCell id="4EMU74MTj3nFoCHXgDLq-26" value="&lt;b&gt;UC 7:&lt;/b&gt;&lt;br&gt;Denied" style="ellipse;whiteSpace=wrap;html=1;fillColor=#d5e8d4;strokeColor=#82b366;" vertex="1" parent="1">
          <mxGeometry x="900" y="120" width="110" height="55" as="geometry" />
        </mxCell>
        <mxCell id="4EMU74MTj3nFoCHXgDLq-29" value="&amp;lt;&amp;lt;extends&amp;gt;&amp;gt;" style="text;html=1;align=center;verticalAlign=middle;resizable=0;points=[];autosize=1;strokeColor=none;fillColor=none;rotation=45;" vertex="1" parent="1">
          <mxGeometry x="850" y="40" width="90" height="30" as="geometry" />
        </mxCell>
        <mxCell id="4EMU74MTj3nFoCHXgDLq-32" value="&amp;lt;&amp;lt;extends&amp;gt;&amp;gt;" style="text;html=1;align=center;verticalAlign=middle;resizable=0;points=[];autosize=1;strokeColor=none;fillColor=none;rotation=30;" vertex="1" parent="1">
          <mxGeometry x="910" y="-10" width="90" height="30" as="geometry" />
        </mxCell>
        <mxCell id="4EMU74MTj3nFoCHXgDLq-33" value="" style="endArrow=block;html=1;rounded=0;entryX=1;entryY=0;entryDx=0;entryDy=0;exitX=0;exitY=0.5;exitDx=0;exitDy=0;endFill=0;" edge="1" parent="1" source="4EMU74MTj3nFoCHXgDLq-34" target="4EMU74MTj3nFoCHXgDLq-11">
          <mxGeometry width="50" height="50" relative="1" as="geometry">
            <mxPoint x="440" y="330" as="sourcePoint" />
            <mxPoint x="440" y="380" as="targetPoint" />
          </mxGeometry>
        </mxCell>
        <mxCell id="4EMU74MTj3nFoCHXgDLq-34" value="&lt;b&gt;UC 9:&lt;/b&gt;&lt;br&gt;User Management" style="ellipse;whiteSpace=wrap;html=1;fillColor=#fff2cc;strokeColor=#d6b656;" vertex="1" parent="1">
          <mxGeometry x="953" y="420" width="116" height="60" as="geometry" />
        </mxCell>
        <mxCell id="4EMU74MTj3nFoCHXgDLq-35" value="&lt;b&gt;UC 14:&lt;/b&gt;&lt;br&gt;Booking Management" style="ellipse;whiteSpace=wrap;html=1;fillColor=#fff2cc;strokeColor=#d6b656;" vertex="1" parent="1">
          <mxGeometry x="734" y="635" width="116" height="60" as="geometry" />
        </mxCell>
        <mxCell id="4EMU74MTj3nFoCHXgDLq-36" value="" style="endArrow=block;html=1;rounded=0;entryX=1;entryY=1;entryDx=0;entryDy=0;exitX=0.5;exitY=0;exitDx=0;exitDy=0;endFill=0;" edge="1" parent="1" source="4EMU74MTj3nFoCHXgDLq-35" target="4EMU74MTj3nFoCHXgDLq-11">
          <mxGeometry width="50" height="50" relative="1" as="geometry">
            <mxPoint x="415" y="410" as="sourcePoint" />
            <mxPoint x="330" y="449" as="targetPoint" />
          </mxGeometry>
        </mxCell>
        <mxCell id="4EMU74MTj3nFoCHXgDLq-37" value="&lt;div&gt;&lt;b&gt;UC 11:&lt;/b&gt;&lt;/div&gt;&lt;div&gt;Read&lt;br&gt;&lt;/div&gt;" style="ellipse;whiteSpace=wrap;html=1;fillColor=#d5e8d4;strokeColor=#82b366;" vertex="1" parent="1">
          <mxGeometry x="1193" y="435" width="110" height="55" as="geometry" />
        </mxCell>
        <mxCell id="4EMU74MTj3nFoCHXgDLq-38" value="&lt;b&gt;UC 10:&lt;/b&gt;&lt;br&gt;Create" style="ellipse;whiteSpace=wrap;html=1;fillColor=#d5e8d4;strokeColor=#82b366;" vertex="1" parent="1">
          <mxGeometry x="1083" y="290" width="110" height="55" as="geometry" />
        </mxCell>
        <mxCell id="4EMU74MTj3nFoCHXgDLq-39" value="&lt;div&gt;&lt;b&gt;UC 12:&lt;/b&gt;&lt;/div&gt;&lt;div&gt;Update&lt;br&gt;&lt;/div&gt;" style="ellipse;whiteSpace=wrap;html=1;fillColor=#d5e8d4;strokeColor=#82b366;" vertex="1" parent="1">
          <mxGeometry x="1143" y="565" width="110" height="55" as="geometry" />
        </mxCell>
        <mxCell id="4EMU74MTj3nFoCHXgDLq-40" value="&lt;div&gt;&lt;b&gt;UC 13:&lt;/b&gt;&lt;/div&gt;&lt;div&gt;Delete&lt;br&gt;&lt;/div&gt;" style="ellipse;whiteSpace=wrap;html=1;fillColor=#d5e8d4;strokeColor=#82b366;" vertex="1" parent="1">
          <mxGeometry x="923" y="575" width="110" height="55" as="geometry" />
        </mxCell>
        <mxCell id="4EMU74MTj3nFoCHXgDLq-41" value="&lt;div&gt;&lt;b&gt;UC 18:&lt;/b&gt;&lt;/div&gt;&lt;div&gt;Delete&lt;br&gt;&lt;/div&gt;" style="ellipse;whiteSpace=wrap;html=1;fillColor=#d5e8d4;strokeColor=#82b366;" vertex="1" parent="1">
          <mxGeometry x="504" y="695" width="110" height="55" as="geometry" />
        </mxCell>
        <mxCell id="4EMU74MTj3nFoCHXgDLq-42" value="&lt;div&gt;&lt;b&gt;UC 17:&lt;/b&gt;&lt;/div&gt;&lt;div&gt;Update&lt;br&gt;&lt;/div&gt;" style="ellipse;whiteSpace=wrap;html=1;fillColor=#d5e8d4;strokeColor=#82b366;" vertex="1" parent="1">
          <mxGeometry x="614" y="840" width="110" height="55" as="geometry" />
        </mxCell>
        <mxCell id="4EMU74MTj3nFoCHXgDLq-43" value="&lt;div&gt;&lt;b&gt;UC 16:&lt;/b&gt;&lt;/div&gt;&lt;div&gt;Read&lt;br&gt;&lt;/div&gt;" style="ellipse;whiteSpace=wrap;html=1;fillColor=#d5e8d4;strokeColor=#82b366;" vertex="1" parent="1">
          <mxGeometry x="883" y="855" width="110" height="55" as="geometry" />
        </mxCell>
        <mxCell id="4EMU74MTj3nFoCHXgDLq-44" value="&lt;b&gt;UC 15:&lt;/b&gt;&lt;br&gt;Create" style="ellipse;whiteSpace=wrap;html=1;fillColor=#d5e8d4;strokeColor=#82b366;" vertex="1" parent="1">
          <mxGeometry x="956" y="695" width="110" height="55" as="geometry" />
        </mxCell>
        <mxCell id="4EMU74MTj3nFoCHXgDLq-45" value="" style="endArrow=block;html=1;rounded=0;entryX=0.5;entryY=0;entryDx=0;entryDy=0;endFill=0;exitX=0;exitY=1;exitDx=0;exitDy=0;" edge="1" parent="1" source="4EMU74MTj3nFoCHXgDLq-38" target="4EMU74MTj3nFoCHXgDLq-34">
          <mxGeometry width="50" height="50" relative="1" as="geometry">
            <mxPoint x="1021.5" y="386" as="sourcePoint" />
            <mxPoint x="914.5" y="255" as="targetPoint" />
          </mxGeometry>
        </mxCell>
        <mxCell id="4EMU74MTj3nFoCHXgDLq-46" value="&amp;lt;&amp;lt;extends&amp;gt;&amp;gt;" style="text;html=1;align=center;verticalAlign=middle;resizable=0;points=[];autosize=1;strokeColor=none;fillColor=none;rotation=-40;" vertex="1" parent="1">
          <mxGeometry x="993" y="355" width="90" height="30" as="geometry" />
        </mxCell>
        <mxCell id="4EMU74MTj3nFoCHXgDLq-47" value="&amp;lt;&amp;lt;extends&amp;gt;&amp;gt;" style="text;html=1;align=center;verticalAlign=middle;resizable=0;points=[];autosize=1;strokeColor=none;fillColor=none;rotation=15;" vertex="1" parent="1">
          <mxGeometry x="770" y="375" width="90" height="30" as="geometry" />
        </mxCell>
        <mxCell id="4EMU74MTj3nFoCHXgDLq-48" value="&amp;lt;&amp;lt;extends&amp;gt;&amp;gt;" style="text;html=1;align=center;verticalAlign=middle;resizable=0;points=[];autosize=1;strokeColor=none;fillColor=none;rotation=30;" vertex="1" parent="1">
          <mxGeometry x="540" y="460" width="90" height="30" as="geometry" />
        </mxCell>
        <mxCell id="4EMU74MTj3nFoCHXgDLq-50" value="" style="endArrow=block;html=1;rounded=0;entryX=1;entryY=0.5;entryDx=0;entryDy=0;endFill=0;exitX=0;exitY=0.5;exitDx=0;exitDy=0;" edge="1" parent="1" source="4EMU74MTj3nFoCHXgDLq-37" target="4EMU74MTj3nFoCHXgDLq-34">
          <mxGeometry width="50" height="50" relative="1" as="geometry">
            <mxPoint x="1201" y="397" as="sourcePoint" />
            <mxPoint x="1113" y="480" as="targetPoint" />
          </mxGeometry>
        </mxCell>
        <mxCell id="4EMU74MTj3nFoCHXgDLq-51" value="" style="endArrow=block;html=1;rounded=0;entryX=1;entryY=1;entryDx=0;entryDy=0;endFill=0;exitX=0;exitY=0.5;exitDx=0;exitDy=0;" edge="1" parent="1" source="4EMU74MTj3nFoCHXgDLq-39" target="4EMU74MTj3nFoCHXgDLq-34">
          <mxGeometry width="50" height="50" relative="1" as="geometry">
            <mxPoint x="1131" y="490" as="sourcePoint" />
            <mxPoint x="1043" y="573" as="targetPoint" />
          </mxGeometry>
        </mxCell>
        <mxCell id="4EMU74MTj3nFoCHXgDLq-56" style="edgeStyle=orthogonalEdgeStyle;rounded=0;orthogonalLoop=1;jettySize=auto;html=1;exitX=0.5;exitY=0.5;exitDx=0;exitDy=0;exitPerimeter=0;entryX=1;entryY=0.5;entryDx=0;entryDy=0;endArrow=none;endFill=0;" edge="1" parent="1" source="4EMU74MTj3nFoCHXgDLq-52" target="4EMU74MTj3nFoCHXgDLq-55">
          <mxGeometry relative="1" as="geometry" />
        </mxCell>
        <mxCell id="4EMU74MTj3nFoCHXgDLq-52" value="Banco" style="shape=umlActor;verticalLabelPosition=bottom;verticalAlign=top;html=1;outlineConnect=0;" vertex="1" parent="1">
          <mxGeometry x="1280" y="-114.5" width="30" height="60" as="geometry" />
        </mxCell>
        <mxCell id="4EMU74MTj3nFoCHXgDLq-53" value="&amp;lt;&amp;lt;extends&amp;gt;&amp;gt;" style="text;html=1;align=center;verticalAlign=middle;resizable=0;points=[];autosize=1;strokeColor=none;fillColor=none;rotation=0;" vertex="1" parent="1">
          <mxGeometry x="1093" y="425" width="90" height="30" as="geometry" />
        </mxCell>
        <mxCell id="4EMU74MTj3nFoCHXgDLq-54" value="&amp;lt;&amp;lt;extends&amp;gt;&amp;gt;" style="text;html=1;align=center;verticalAlign=middle;resizable=0;points=[];autosize=1;strokeColor=none;fillColor=none;rotation=45;" vertex="1" parent="1">
          <mxGeometry x="1066" y="505" width="90" height="30" as="geometry" />
        </mxCell>
        <mxCell id="4EMU74MTj3nFoCHXgDLq-55" value="&lt;b&gt;UC 4:&lt;/b&gt;&lt;br&gt;Check" style="ellipse;whiteSpace=wrap;html=1;fillColor=#f8cecc;strokeColor=#b85450;" vertex="1" parent="1">
          <mxGeometry x="1060" y="-112" width="110" height="55" as="geometry" />
        </mxCell>
        <mxCell id="4EMU74MTj3nFoCHXgDLq-58" value="&lt;b&gt;UC 3:&lt;/b&gt;&lt;br&gt;Payment" style="ellipse;whiteSpace=wrap;html=1;fillColor=#dae8fc;strokeColor=#6c8ebf;" vertex="1" parent="1">
          <mxGeometry x="740" y="-100" width="120" height="80" as="geometry" />
        </mxCell>
        <mxCell id="4EMU74MTj3nFoCHXgDLq-61" value="&amp;lt;&amp;lt;include&amp;gt;&amp;gt;" style="text;html=1;align=center;verticalAlign=middle;resizable=0;points=[];autosize=1;strokeColor=none;fillColor=none;rotation=-30;" vertex="1" parent="1">
          <mxGeometry x="550" y="-30" width="90" height="30" as="geometry" />
        </mxCell>
        <mxCell id="4EMU74MTj3nFoCHXgDLq-62" value="" style="endArrow=block;html=1;rounded=0;exitX=0.56;exitY=-0.033;exitDx=0;exitDy=0;exitPerimeter=0;entryX=0;entryY=0.5;entryDx=0;entryDy=0;endFill=0;" edge="1" parent="1" source="4EMU74MTj3nFoCHXgDLq-15" target="4EMU74MTj3nFoCHXgDLq-58">
          <mxGeometry width="50" height="50" relative="1" as="geometry">
            <mxPoint x="480" y="50" as="sourcePoint" />
            <mxPoint x="530" as="targetPoint" />
          </mxGeometry>
        </mxCell>
        <mxCell id="4EMU74MTj3nFoCHXgDLq-64" value="" style="endArrow=block;html=1;rounded=0;exitX=1;exitY=0.5;exitDx=0;exitDy=0;entryX=0;entryY=0.5;entryDx=0;entryDy=0;endFill=0;" edge="1" parent="1" source="4EMU74MTj3nFoCHXgDLq-58" target="4EMU74MTj3nFoCHXgDLq-55">
          <mxGeometry width="50" height="50" relative="1" as="geometry">
            <mxPoint x="880" y="-57" as="sourcePoint" />
            <mxPoint x="1141" y="-195" as="targetPoint" />
          </mxGeometry>
        </mxCell>
        <mxCell id="4EMU74MTj3nFoCHXgDLq-65" value="&amp;lt;&amp;lt;include&amp;gt;&amp;gt;" style="text;html=1;align=center;verticalAlign=middle;resizable=0;points=[];autosize=1;strokeColor=none;fillColor=none;rotation=0;" vertex="1" parent="1">
          <mxGeometry x="900" y="-100" width="90" height="30" as="geometry" />
        </mxCell>
        <mxCell id="4EMU74MTj3nFoCHXgDLq-66" value="&amp;lt;&amp;lt;extends&amp;gt;&amp;gt;" style="text;html=1;align=center;verticalAlign=middle;resizable=0;points=[];autosize=1;strokeColor=none;fillColor=none;rotation=40;" vertex="1" parent="1">
          <mxGeometry x="1140" y="110" width="90" height="30" as="geometry" />
        </mxCell>
        <mxCell id="4EMU74MTj3nFoCHXgDLq-67" value="" style="endArrow=block;html=1;rounded=0;entryX=0;entryY=1;entryDx=0;entryDy=0;endFill=0;exitX=0.5;exitY=0;exitDx=0;exitDy=0;" edge="1" parent="1" source="4EMU74MTj3nFoCHXgDLq-40" target="4EMU74MTj3nFoCHXgDLq-34">
          <mxGeometry width="50" height="50" relative="1" as="geometry">
            <mxPoint x="923" y="630" as="sourcePoint" />
            <mxPoint x="832" y="508" as="targetPoint" />
          </mxGeometry>
        </mxCell>
        <mxCell id="4EMU74MTj3nFoCHXgDLq-68" value="&amp;lt;&amp;lt;extends&amp;gt;&amp;gt;" style="text;html=1;align=center;verticalAlign=middle;resizable=0;points=[];autosize=1;strokeColor=none;fillColor=none;rotation=90;" vertex="1" parent="1">
          <mxGeometry x="953" y="515" width="90" height="30" as="geometry" />
        </mxCell>
        <mxCell id="4EMU74MTj3nFoCHXgDLq-69" value="" style="endArrow=block;html=1;rounded=0;entryX=1;entryY=0.5;entryDx=0;entryDy=0;endFill=0;exitX=0;exitY=0.5;exitDx=0;exitDy=0;" edge="1" parent="1" source="4EMU74MTj3nFoCHXgDLq-44">
          <mxGeometry width="50" height="50" relative="1" as="geometry">
            <mxPoint x="942" y="719" as="sourcePoint" />
            <mxPoint x="848.9999999999918" y="670" as="targetPoint" />
          </mxGeometry>
        </mxCell>
        <mxCell id="4EMU74MTj3nFoCHXgDLq-70" value="" style="endArrow=block;html=1;rounded=0;entryX=1;entryY=1;entryDx=0;entryDy=0;endFill=0;exitX=0.5;exitY=0;exitDx=0;exitDy=0;" edge="1" parent="1" source="4EMU74MTj3nFoCHXgDLq-43">
          <mxGeometry width="50" height="50" relative="1" as="geometry">
            <mxPoint x="891" y="869" as="sourcePoint" />
            <mxPoint x="831.7057637691573" y="691.3705259788076" as="targetPoint" />
          </mxGeometry>
        </mxCell>
        <mxCell id="4EMU74MTj3nFoCHXgDLq-71" value="" style="endArrow=block;html=1;rounded=0;entryX=0.5;entryY=1;entryDx=0;entryDy=0;endFill=0;exitX=1;exitY=0;exitDx=0;exitDy=0;" edge="1" parent="1" source="4EMU74MTj3nFoCHXgDLq-42" target="4EMU74MTj3nFoCHXgDLq-35">
          <mxGeometry width="50" height="50" relative="1" as="geometry">
            <mxPoint x="742" y="849" as="sourcePoint" />
            <mxPoint x="734" y="745" as="targetPoint" />
          </mxGeometry>
        </mxCell>
        <mxCell id="4EMU74MTj3nFoCHXgDLq-72" value="" style="endArrow=block;html=1;rounded=0;entryX=0;entryY=1;entryDx=0;entryDy=0;endFill=0;exitX=1;exitY=0.5;exitDx=0;exitDy=0;" edge="1" parent="1" source="4EMU74MTj3nFoCHXgDLq-41" target="4EMU74MTj3nFoCHXgDLq-35">
          <mxGeometry width="50" height="50" relative="1" as="geometry">
            <mxPoint x="614" y="664" as="sourcePoint" />
            <mxPoint x="606" y="560" as="targetPoint" />
          </mxGeometry>
        </mxCell>
        <mxCell id="4EMU74MTj3nFoCHXgDLq-73" value="&amp;lt;&amp;lt;extends&amp;gt;&amp;gt;" style="text;html=1;align=center;verticalAlign=middle;resizable=0;points=[];autosize=1;strokeColor=none;fillColor=none;rotation=30;" vertex="1" parent="1">
          <mxGeometry x="873" y="665" width="90" height="30" as="geometry" />
        </mxCell>
        <mxCell id="4EMU74MTj3nFoCHXgDLq-74" value="&amp;lt;&amp;lt;extends&amp;gt;&amp;gt;" style="text;html=1;align=center;verticalAlign=middle;resizable=0;points=[];autosize=1;strokeColor=none;fillColor=none;rotation=60;" vertex="1" parent="1">
          <mxGeometry x="866" y="750" width="90" height="30" as="geometry" />
        </mxCell>
        <mxCell id="4EMU74MTj3nFoCHXgDLq-75" value="&amp;lt;&amp;lt;extends&amp;gt;&amp;gt;" style="text;html=1;align=center;verticalAlign=middle;resizable=0;points=[];autosize=1;strokeColor=none;fillColor=none;rotation=-55;" vertex="1" parent="1">
          <mxGeometry x="684" y="750" width="90" height="30" as="geometry" />
        </mxCell>
        <mxCell id="4EMU74MTj3nFoCHXgDLq-76" value="&amp;lt;&amp;lt;extends&amp;gt;&amp;gt;" style="text;html=1;align=center;verticalAlign=middle;resizable=0;points=[];autosize=1;strokeColor=none;fillColor=none;rotation=-15;" vertex="1" parent="1">
          <mxGeometry x="624" y="680" width="90" height="30" as="geometry" />
        </mxCell>
        <mxCell id="4EMU74MTj3nFoCHXgDLq-77" value="&lt;b&gt;UC 19:&lt;/b&gt;&lt;br&gt;Product Management" style="ellipse;whiteSpace=wrap;html=1;fillColor=#fff2cc;strokeColor=#d6b656;" vertex="1" parent="1">
          <mxGeometry x="90" y="665" width="116" height="60" as="geometry" />
        </mxCell>
        <mxCell id="4EMU74MTj3nFoCHXgDLq-78" value="" style="endArrow=block;html=1;rounded=0;entryX=0;entryY=1;entryDx=0;entryDy=0;exitX=0.5;exitY=0;exitDx=0;exitDy=0;endFill=0;" edge="1" parent="1" source="4EMU74MTj3nFoCHXgDLq-77" target="4EMU74MTj3nFoCHXgDLq-11">
          <mxGeometry width="50" height="50" relative="1" as="geometry">
            <mxPoint x="528.5" y="680" as="sourcePoint" />
            <mxPoint x="71.5" y="396" as="targetPoint" />
          </mxGeometry>
        </mxCell>
        <mxCell id="4EMU74MTj3nFoCHXgDLq-79" value="&amp;lt;&amp;lt;extends&amp;gt;&amp;gt;" style="text;html=1;align=center;verticalAlign=middle;resizable=0;points=[];autosize=1;strokeColor=none;fillColor=none;rotation=-65;" vertex="1" parent="1">
          <mxGeometry x="140" y="490" width="90" height="30" as="geometry" />
        </mxCell>
        <mxCell id="4EMU74MTj3nFoCHXgDLq-80" value="&lt;div&gt;&lt;b&gt;UC 18:&lt;/b&gt;&lt;/div&gt;&lt;div&gt;Delete&lt;br&gt;&lt;/div&gt;" style="ellipse;whiteSpace=wrap;html=1;fillColor=#d5e8d4;strokeColor=#82b366;" vertex="1" parent="1">
          <mxGeometry x="-150" y="685" width="110" height="55" as="geometry" />
        </mxCell>
        <mxCell id="4EMU74MTj3nFoCHXgDLq-81" value="&lt;div&gt;&lt;b&gt;UC 17:&lt;/b&gt;&lt;/div&gt;&lt;div&gt;Update&lt;br&gt;&lt;/div&gt;" style="ellipse;whiteSpace=wrap;html=1;fillColor=#d5e8d4;strokeColor=#82b366;" vertex="1" parent="1">
          <mxGeometry x="-80" y="855" width="110" height="55" as="geometry" />
        </mxCell>
        <mxCell id="4EMU74MTj3nFoCHXgDLq-82" value="&lt;div&gt;&lt;b&gt;UC 16:&lt;/b&gt;&lt;/div&gt;&lt;div&gt;Read&lt;br&gt;&lt;/div&gt;" style="ellipse;whiteSpace=wrap;html=1;fillColor=#d5e8d4;strokeColor=#82b366;" vertex="1" parent="1">
          <mxGeometry x="239" y="920" width="110" height="55" as="geometry" />
        </mxCell>
        <mxCell id="4EMU74MTj3nFoCHXgDLq-83" value="&lt;b&gt;UC 15:&lt;/b&gt;&lt;br&gt;Create" style="ellipse;whiteSpace=wrap;html=1;fillColor=#d5e8d4;strokeColor=#82b366;" vertex="1" parent="1">
          <mxGeometry x="312" y="760" width="110" height="55" as="geometry" />
        </mxCell>
        <mxCell id="4EMU74MTj3nFoCHXgDLq-84" value="" style="endArrow=block;html=1;rounded=0;entryX=1;entryY=1;entryDx=0;entryDy=0;endFill=0;exitX=0;exitY=0.5;exitDx=0;exitDy=0;" edge="1" parent="1" source="4EMU74MTj3nFoCHXgDLq-83" target="4EMU74MTj3nFoCHXgDLq-77">
          <mxGeometry width="50" height="50" relative="1" as="geometry">
            <mxPoint x="309" y="770" as="sourcePoint" />
            <mxPoint x="201.99999999999181" y="717" as="targetPoint" />
          </mxGeometry>
        </mxCell>
        <mxCell id="4EMU74MTj3nFoCHXgDLq-85" value="" style="endArrow=block;html=1;rounded=0;entryX=0.5;entryY=1;entryDx=0;entryDy=0;endFill=0;exitX=0.5;exitY=0;exitDx=0;exitDy=0;" edge="1" parent="1" source="4EMU74MTj3nFoCHXgDLq-82" target="4EMU74MTj3nFoCHXgDLq-77">
          <mxGeometry width="50" height="50" relative="1" as="geometry">
            <mxPoint x="274" y="915" as="sourcePoint" />
            <mxPoint x="167.70576376915733" y="751.3705259788076" as="targetPoint" />
          </mxGeometry>
        </mxCell>
        <mxCell id="4EMU74MTj3nFoCHXgDLq-86" value="" style="endArrow=block;html=1;rounded=0;entryX=0;entryY=1;entryDx=0;entryDy=0;endFill=0;exitX=0.5;exitY=0;exitDx=0;exitDy=0;" edge="1" parent="1" source="4EMU74MTj3nFoCHXgDLq-81" target="4EMU74MTj3nFoCHXgDLq-77">
          <mxGeometry width="50" height="50" relative="1" as="geometry">
            <mxPoint x="44" y="908" as="sourcePoint" />
            <mxPoint x="128" y="755" as="targetPoint" />
          </mxGeometry>
        </mxCell>
        <mxCell id="4EMU74MTj3nFoCHXgDLq-87" value="" style="endArrow=block;html=1;rounded=0;entryX=0;entryY=0.5;entryDx=0;entryDy=0;endFill=0;exitX=1;exitY=0.5;exitDx=0;exitDy=0;" edge="1" parent="1" source="4EMU74MTj3nFoCHXgDLq-80" target="4EMU74MTj3nFoCHXgDLq-77">
          <mxGeometry width="50" height="50" relative="1" as="geometry">
            <mxPoint x="-50" y="783" as="sourcePoint" />
            <mxPoint x="87" y="746" as="targetPoint" />
          </mxGeometry>
        </mxCell>
        <mxCell id="4EMU74MTj3nFoCHXgDLq-88" value="&amp;lt;&amp;lt;extends&amp;gt;&amp;gt;" style="text;html=1;align=center;verticalAlign=middle;resizable=0;points=[];autosize=1;strokeColor=none;fillColor=none;rotation=30;" vertex="1" parent="1">
          <mxGeometry x="222" y="720" width="90" height="30" as="geometry" />
        </mxCell>
        <mxCell id="4EMU74MTj3nFoCHXgDLq-89" value="&amp;lt;&amp;lt;extends&amp;gt;&amp;gt;" style="text;html=1;align=center;verticalAlign=middle;resizable=0;points=[];autosize=1;strokeColor=none;fillColor=none;rotation=60;" vertex="1" parent="1">
          <mxGeometry x="202" y="810" width="90" height="30" as="geometry" />
        </mxCell>
        <mxCell id="4EMU74MTj3nFoCHXgDLq-90" value="&amp;lt;&amp;lt;extends&amp;gt;&amp;gt;" style="text;html=1;align=center;verticalAlign=middle;resizable=0;points=[];autosize=1;strokeColor=none;fillColor=none;rotation=-45;" vertex="1" parent="1">
          <mxGeometry x="-30" y="772.5" width="90" height="30" as="geometry" />
        </mxCell>
        <mxCell id="4EMU74MTj3nFoCHXgDLq-91" value="&amp;lt;&amp;lt;extends&amp;gt;&amp;gt;" style="text;html=1;align=center;verticalAlign=middle;resizable=0;points=[];autosize=1;strokeColor=none;fillColor=none;rotation=-5;" vertex="1" parent="1">
          <mxGeometry x="-40" y="665" width="90" height="30" as="geometry" />
        </mxCell>
      </root>
    </mxGraphModel>
  </diagram>
</mxfile>
